<svg preserveAspectRatio="none" overflow="visible" style="display: block;" width="13.9896" height="13.9945" viewBox="0 0 13.9896 13.9945" fill="none" xmlns="http://www.w3.org/2000/svg">
<g id="Group">
<path id="Vector" fill-rule="evenodd" clip-rule="evenodd" d="M11.9607 11.3312C11.8896 11.3312 11.8185 11.3477 11.7529 11.3805C11.6763 11.4133 11.5997 11.4461 11.5286 11.4734L11.4247 11.5172L11.288 11.5719C9.78411 12.1789 8.20911 12.5398 6.74895 12.5672C6.69427 12.5672 6.63958 12.5672 6.59036 12.5672C4.29349 12.5672 2.42317 11.5008 0.530985 10.4562C0.46536 10.4234 0.399735 10.4016 0.33411 10.4016C0.24661 10.4016 0.164579 10.4344 0.098954 10.4945C0.033329 10.5547 -0.00495197 10.6422 0.000516777 10.7297C0.000516777 10.8445 0.0606729 10.9484 0.148173 11.0195C1.92005 12.5617 3.86692 13.9891 6.48099 13.9945C6.5302 13.9945 6.58489 13.9945 6.63411 13.9945C8.29661 13.9562 10.1779 13.393 11.638 12.4797L11.649 12.4742C11.8404 12.3594 12.0318 12.2281 12.2122 12.0859C12.3216 12.0039 12.4036 11.8727 12.4036 11.7359C12.3818 11.4953 12.1794 11.3312 11.9607 11.3312Z" fill="black"/>
<path id="Vector_2" fill-rule="evenodd" clip-rule="evenodd" d="M13.9841 10.4836C13.9786 10.3359 13.9458 10.2266 13.8857 10.1336L13.8802 10.1227L13.8747 10.1117C13.8146 10.0461 13.7544 10.0187 13.6888 9.99141C13.4974 9.92031 13.2185 9.87656 12.8849 9.87656C12.6443 9.87656 12.3763 9.89844 12.1083 9.95859V9.94219L11.8404 10.0297H11.8349L11.6818 10.0789V10.0844C11.5013 10.1609 11.3427 10.2484 11.1896 10.3578C11.0966 10.4289 11.02 10.5219 11.0146 10.6641C11.0146 10.7406 11.0529 10.8281 11.1185 10.8828C11.1841 10.9375 11.2607 10.9539 11.3263 10.9539C11.3427 10.9539 11.3591 10.9539 11.37 10.9484H11.381H11.3919C11.5232 10.9211 11.7146 10.9047 11.9388 10.8719C12.1302 10.85 12.338 10.8336 12.513 10.8336C12.6388 10.8336 12.7536 10.8391 12.8302 10.8609C12.8685 10.8664 12.8958 10.8773 12.9122 10.8883C12.9177 10.8883 12.9232 10.8937 12.9232 10.8937C12.9286 10.9047 12.9286 10.932 12.9286 10.9703C12.9286 11.118 12.8685 11.3914 12.781 11.6594C12.699 11.9273 12.595 12.1953 12.5294 12.3758C12.513 12.4195 12.5021 12.4633 12.5021 12.5125C12.5021 12.5836 12.5294 12.6711 12.5896 12.7313C12.6497 12.7914 12.7318 12.8133 12.7974 12.8133H12.8029C12.9013 12.8133 12.9888 12.775 13.0599 12.7148C13.7435 12.1023 13.9786 11.118 13.9896 10.5656L13.9841 10.4836Z" fill="black"/>
<path id="Vector_3" fill-rule="evenodd" clip-rule="evenodd" d="M7.73333 3.89375C7.33411 3.92656 6.86927 3.95391 6.40442 4.01406C5.69349 4.10703 4.98255 4.23281 4.39739 4.51172C3.25442 4.97656 2.48333 5.96094 2.48333 7.41563C2.48333 9.23672 3.65911 10.1664 5.14114 10.1664C5.63333 10.1664 6.03802 10.1063 6.40442 10.0133C6.99505 9.82734 7.48724 9.48828 8.07239 8.87031C8.41145 9.33516 8.50442 9.54844 9.08958 10.0461C9.2427 10.1063 9.4013 10.1063 9.52161 10.0133C9.89348 9.70156 10.5443 9.14922 10.8833 8.8375C11.0365 8.71172 11.0091 8.52578 10.9161 8.37266C10.5771 7.94063 10.238 7.56875 10.238 6.73203V3.95391C10.238 2.77813 10.331 1.70078 9.46692 0.896875C8.75598 0.246093 7.64583 0 6.7763 0H6.40442C4.82942 0.0929688 3.16145 0.771095 2.78958 2.71797C2.72942 2.96406 2.91536 3.05703 3.03567 3.08984L4.7638 3.30859C4.94974 3.27578 5.0427 3.12266 5.07005 2.96953C5.22317 2.29141 5.78099 1.94688 6.39895 1.88672H6.52474C6.89661 1.88672 7.29583 2.03984 7.51458 2.35156C7.76067 2.72344 7.73333 3.21563 7.73333 3.64766V3.89375ZM7.39427 7.56875C7.17552 8.00078 6.80911 8.27969 6.40442 8.37266C6.34427 8.37266 6.2513 8.40547 6.15833 8.40547C5.4802 8.40547 5.07552 7.88047 5.07552 7.10938C5.07552 6.11953 5.66067 5.65469 6.40442 5.44141C6.80364 5.34844 7.26849 5.31563 7.73333 5.31563V5.6875C7.73333 6.39844 7.76614 6.95078 7.39427 7.56875Z" fill="black"/>
</g>
</svg>
