<svg preserveAspectRatio="none" overflow="visible" style="display: block;" width="26" height="26" viewBox="0 0 26 26" fill="none" xmlns="http://www.w3.org/2000/svg">
<g id="sFuse">
<rect x="1" y="1" width="24" height="24" rx="12" fill="white"/>
<rect x="1" y="1" width="24" height="24" rx="12" stroke="#1C1C1C" stroke-width="2"/>
<path id="Vector" d="M15.2077 7.40654C15.7612 6.73416 16.0355 5.87181 15.9731 5C15.1248 5.08262 14.3418 5.49531 13.7899 6.15061C13.5151 6.46449 13.3045 6.83007 13.1702 7.22635C13.0358 7.62262 12.9804 8.04178 13.0071 8.45973C13.4297 8.46809 13.8484 8.37731 14.2303 8.19454C14.6122 8.01178 14.9468 7.74203 15.2077 7.40654ZM15.9209 8.61859C14.7032 8.5475 13.6769 9.32071 13.0941 9.32071C12.5113 9.32071 11.6242 8.6572 10.6674 8.67476C10.0409 8.69257 9.43005 8.87597 8.89583 9.20664C8.36161 9.53731 7.92275 10.0037 7.62311 10.5591C6.31843 12.841 7.2752 16.2402 8.54509 18.0982C9.16265 18.9811 9.90197 20.0334 10.8848 19.9992C11.8677 19.965 12.1721 19.3848 13.2942 19.3848C14.4162 19.3848 14.7467 19.9992 15.7209 19.9772C16.6951 19.9553 17.3735 19.0926 17.9823 18.1342C18.4215 17.4795 18.7643 16.7641 19 16.0102C18.4151 15.749 17.9176 15.3226 17.5673 14.7826C17.217 14.2426 17.0288 13.6119 17.0256 12.9665C17.0328 12.3938 17.1823 11.8322 17.4604 11.3329C17.7384 10.8336 18.1362 10.4128 18.6173 10.1089C18.3116 9.66787 17.9094 9.30388 17.4418 9.04513C16.9742 8.78638 16.4538 8.63982 15.9209 8.61683" fill="black"/>
</g>
</svg>
