<svg preserveAspectRatio="none" overflow="visible" style="display: block;" width="18" height="18" viewBox="0 0 18 18" fill="none" xmlns="http://www.w3.org/2000/svg">
<g id="Google-gemini-icon 1" clip-path="url(#clip0_0_108)">
<path id="Vector" d="M18 9.018C15.6647 9.16131 13.4624 10.1536 11.808 11.808C10.1536 13.4624 9.16131 15.6647 9.018 18H8.982C8.83893 15.6646 7.84668 13.4622 6.19223 11.8078C4.53778 10.1533 2.33537 9.16107 0 9.018L0 8.982C2.33537 8.83893 4.53778 7.84668 6.19223 6.19223C7.84668 4.53778 8.83893 2.33537 8.982 0L9.018 0C9.16131 2.33528 10.1536 4.53756 11.808 6.19196C13.4624 7.84636 15.6647 8.83869 18 8.982V9.018Z" fill="url(#paint0_radial_0_108)"/>
</g>
<defs>
<radialGradient id="paint0_radial_0_108" cx="0" cy="0" r="1" gradientUnits="userSpaceOnUse" gradientTransform="translate(1.7865 7.31587) rotate(18.6832) scale(19.1588 153.474)">
<stop offset="0.067" stop-color="#9168C0"/>
<stop offset="0.343" stop-color="#5684D1"/>
<stop offset="0.672" stop-color="#1BA1E3"/>
</radialGradient>
<clipPath id="clip0_0_108">
<rect width="18" height="18" fill="white"/>
</clipPath>
</defs>
</svg>
