<svg preserveAspectRatio="none" overflow="visible" style="display: block;" width="16" height="16" viewBox="0 0 16 16" fill="none" xmlns="http://www.w3.org/2000/svg">
<g id="image 1 [Vectorized]" clip-path="url(#clip0_0_20)">
<path id="Vector" d="M1.21006 2.998C1.74275 3.00759 2.27845 2.9952 2.8107 3.00233C2.8505 3.00514 3.25644 3.02275 3.26177 3.02544C3.51306 3.15233 3.7722 3.02314 4.03634 3.09545C4.03273 3.09445 4.17397 3.24561 4.19214 3.26145C4.01364 3.29748 3.88033 3.32609 3.69566 3.31355C3.66647 3.31156 3.51506 3.3105 3.49542 3.32003C3.78213 3.33145 4.30119 3.35705 4.5785 3.34214C4.7578 3.34375 5.0018 3.35181 5.17603 3.34138L5.43538 3.34528L5.63211 3.34488C5.89422 3.39144 6.12566 3.42122 6.3847 3.51027C6.53062 3.56044 6.43788 3.63348 6.61108 3.64516C6.94861 3.65208 7.22678 3.65067 7.56289 3.69231C7.69509 3.83548 7.91531 4.01533 8.11261 4.00411C8.23356 3.99722 8.44005 4.01248 8.55728 3.99673C8.82 4.12903 8.49656 4.37639 9.08412 4.34244L9.36627 4.3472C9.47045 4.42434 9.63334 4.53494 9.71091 4.63158C9.90156 4.64667 10.0213 4.66664 10.2047 4.69025C10.2585 4.77912 10.3144 4.86669 10.3724 4.95288C10.433 4.967 10.5905 5.00755 10.647 5.00752C10.9654 5.00734 10.9059 5.031 10.9728 5.33152C11.1077 5.34359 11.2065 5.34584 11.3422 5.34572C11.3532 5.44444 11.3665 5.52208 11.3852 5.6197C11.4956 5.63156 11.6289 5.61775 11.6876 5.68794L11.6958 5.74892C11.6782 5.80159 11.6893 5.88117 11.7089 5.93016C11.8185 5.9615 11.885 5.97784 11.9972 5.99633L12.0112 6.00637C12.0278 6.12273 12.0196 6.10377 12.1305 6.18808C12.1905 6.23375 12.2814 6.29505 12.3459 6.3312C12.3983 6.37778 12.4728 6.45655 12.5315 6.48073C12.5671 6.47187 12.5692 6.46952 12.6002 6.44897C12.7252 6.55388 12.6123 6.91938 12.7838 6.83986L12.8453 6.84791C12.873 6.82067 12.8895 6.80397 12.9217 6.78077L12.9498 6.78305C12.9874 6.88309 13.012 7.22134 13.0215 7.34212C13.1006 7.35292 13.2561 7.36102 13.3106 7.40383C13.3705 7.48773 13.3391 7.55877 13.356 7.66134C13.3623 7.72147 13.3752 7.87733 13.3919 7.92625C13.4881 8.12564 13.6627 7.87073 13.6608 8.25961C13.6573 8.34673 13.6572 8.42161 13.6586 8.50858C13.655 8.6077 13.6485 9.01731 13.6734 9.09527C13.7857 9.09494 13.9592 8.82791 14.0001 9.15777L14.0015 10.8875L13.9812 10.9712C13.9346 10.9886 13.7764 10.9583 13.7003 10.9553C13.6975 10.9191 13.6953 10.8827 13.6939 10.8463L13.6823 10.8459C13.6513 10.9735 13.6494 11.5314 13.6583 11.6739C13.6584 11.7607 13.6707 11.8982 13.6111 11.9609C13.5249 12.0098 13.4244 11.8951 13.366 12.0946C13.3494 12.1513 13.3546 12.2898 13.3548 12.3549L13.1483 12.3804C13.1094 12.3809 13.0739 12.3804 13.0352 12.3858C13.0568 12.4096 13.0749 12.4279 13.0982 12.4501C13.0669 12.5 13.0447 12.529 13.0284 12.5852L13.0104 12.646L12.9964 12.6607L12.9383 12.6844C12.8989 12.6785 12.708 12.6687 12.6793 12.6794C12.6836 12.7562 12.7007 12.9329 12.6694 12.998C12.5804 13.0077 12.4335 13.0279 12.3486 13.0296C12.3598 13.147 12.3877 13.2306 12.3196 13.3171C12.2442 13.3587 12.0988 13.3428 12.0019 13.3506C11.8768 13.4915 11.7773 13.5107 11.6757 13.6479C11.0976 13.6953 11.3488 13.5401 11.0567 13.9732C10.9558 13.997 10.3224 14.0211 10.1981 14.0165C10.1049 13.9986 9.76369 13.991 9.70194 14.0666C9.69061 14.1978 9.82286 14.2351 9.74077 14.3148C9.63377 14.351 9.37136 14.292 9.31683 14.3409C9.20989 14.345 9.09327 14.3441 8.98544 14.3456C8.81519 14.3429 8.64492 14.3429 8.47467 14.3455C8.15894 14.332 7.79637 14.3458 7.47361 14.3445C7.32977 14.3402 7.14003 14.3592 7.01614 14.3515C7.0175 14.4443 7.01814 14.5265 7.01397 14.6195L7.01581 14.6887L7.00919 14.8154C7.00905 14.8717 7.01156 14.9514 7.00159 15.0045L7.00175 15.3601C6.91417 15.3532 6.72764 15.3321 6.65033 15.348C6.43905 15.3485 6.22775 15.348 6.01647 15.3462C5.88372 15.3363 5.78802 15.3394 5.65428 15.3443C5.65759 15.211 5.65805 15.1384 5.64319 15.0066L5.63284 14.9589C5.62027 14.8358 5.61573 14.7772 5.62208 14.6544C5.54405 14.6249 5.48775 14.6145 5.40869 14.5926C5.3732 14.552 5.3682 14.4403 5.34994 14.3797L5.32903 14.3289C5.33498 14.2653 5.32558 14.0966 5.32309 14.0256C5.18686 14.0195 5.03363 14.009 4.89889 14.0165C4.72484 14.0072 4.59522 13.9966 4.42163 13.9743C4.29033 13.7009 3.94745 13.6782 3.68678 13.6482C3.62712 13.6056 3.68058 13.6039 3.63389 13.5102C3.46916 13.364 3.27417 13.3522 3.06534 13.3021C3.05688 13.1912 3.04089 13.1365 2.99173 13.0376C2.56764 12.9086 2.71956 13.1256 2.62069 12.6781C2.51358 12.6656 2.45205 12.6598 2.34455 12.6611C2.34414 12.5649 2.33278 12.4424 2.32614 12.3443C2.21103 12.342 2.13142 12.34 2.01731 12.3522C2.02433 12.112 2.00255 11.964 1.83491 11.776C1.77369 11.7073 1.7735 11.6954 1.67848 11.6912C1.62336 11.6333 1.64091 11.4258 1.64166 11.3347C1.6548 11.2736 1.66708 10.123 1.65264 10.003C1.69906 9.64147 1.76763 9.86141 1.97698 9.60172C2.01683 9.55231 2.00317 9.42262 2.03909 9.35664C2.13764 9.34866 2.23589 9.33739 2.33369 9.32286C2.35469 9.21159 2.35041 9.13642 2.3487 9.02366C2.46544 9.02373 2.55228 9.00402 2.66452 8.97978C2.96809 8.66411 2.87503 8.6633 3.34541 8.62769C3.38844 8.55425 3.52439 8.45353 3.60645 8.35297C3.72217 8.34477 3.86573 8.34595 3.98372 8.34391C4.09945 8.35394 4.50909 8.34167 4.62109 8.31542C4.64433 8.28456 4.6478 8.23331 4.6502 8.19502C4.66509 7.95684 4.75008 8.03978 4.91884 8.00119C5.04869 7.99386 5.2138 7.99778 5.34625 7.99725C5.33441 7.87639 5.33766 7.71411 5.33684 7.5895C5.33661 7.50186 5.33116 7.11942 5.3672 7.07848C5.46342 6.9692 5.60823 6.86492 5.63498 6.65706C6.13208 6.43756 5.97573 6.37447 6.5967 6.39369C6.6253 6.47498 6.65659 6.55116 6.66492 6.63692C6.79558 6.64505 6.86313 6.64739 6.993 6.63725L7.00038 6.90447C7.01936 7.25684 6.99305 7.62273 7.01245 7.97289C7.04831 8.01191 7.20813 8.00195 7.26905 8.00184C7.34053 8.02341 7.5272 8.01791 7.61019 8.01753L7.68375 8.31856C7.76345 8.32427 7.88069 8.3362 7.95758 8.3323C8.17187 8.335 8.38606 8.34297 8.59995 8.35619C8.62902 8.40286 8.67764 8.49387 8.72116 8.51902C8.80338 8.61027 8.84514 8.6263 8.96798 8.64464C9.09366 8.67319 9.14292 8.67014 9.27109 8.67142C9.29087 8.81606 9.29684 8.83091 9.3753 8.95834C9.48534 9.00369 9.5478 9.00412 9.66658 9.00573C9.66589 9.08219 9.6525 9.2533 9.70094 9.31225C9.7145 9.32877 9.76697 9.3295 9.79181 9.33109C9.88025 9.34275 9.91628 9.34258 10.005 9.3392C9.99492 9.5497 10.0189 10.225 9.99327 10.3713C9.92439 10.3714 9.79795 10.366 9.73692 10.3852C9.7095 10.4553 9.76506 10.467 9.68098 10.6453C9.56491 10.6742 8.83127 10.6548 8.67436 10.6512C8.60698 10.3567 8.5632 10.458 8.33394 10.3424C8.24006 10.295 8.14984 10.0797 8.02333 10.034C7.88102 9.98267 7.744 10.0218 7.60859 9.98436C7.65217 9.87284 7.64208 9.80975 7.63481 9.6922C7.58311 9.65055 7.13369 9.66162 7.03961 9.66422L7.01908 9.67227C7.01173 9.77631 7.01352 9.87989 7.01377 9.98419L7.01277 10.0429C7.00486 10.305 6.98547 12.5807 7.02695 12.6635L7.05577 12.6684C7.10119 12.6641 7.15484 12.6577 7.19955 12.6568L7.33884 12.6553C7.84394 12.6542 8.36228 12.6609 8.86581 12.6512C8.97142 12.651 9.23669 12.6608 9.31734 12.6208C9.42347 12.4578 9.72419 12.3699 9.91219 12.3458C10.5701 12.3288 10.2449 12.4349 10.6714 12.0052C10.7847 11.9998 10.909 12.0083 11.0201 11.9888C11.2674 11.9419 11.2384 11.8053 11.3552 11.6584C11.4479 11.6643 11.5383 11.6347 11.6257 11.6077C11.6457 11.5355 11.6621 11.4382 11.677 11.3631C11.7692 11.3488 11.8648 11.3393 11.9498 11.3022C11.9695 11.222 11.9862 11.134 12.0034 11.0526L12.0217 10.961C12.1189 10.8652 12.1109 11.0172 12.3246 10.8998C12.329 10.8202 12.3383 10.7244 12.3267 10.647C12.3411 10.3025 12.3412 9.95764 12.3271 9.61319C12.3345 9.53222 12.3255 9.41516 12.3217 9.33134C12.2012 9.3307 12.1316 9.32209 12.0169 9.3608L12.0011 9.24361C12.0057 8.99881 12.0049 8.88189 11.9634 8.64241C11.6171 8.28677 11.6734 8.574 11.627 8.01586C11.5527 8.00584 11.4208 8.00191 11.37 7.96686C11.3465 7.93166 11.3437 7.72877 11.336 7.6562C11.1167 7.5948 11.1033 7.50191 10.9514 7.35025C10.9233 7.3438 10.8997 7.33836 10.8804 7.33392C10.8027 7.25688 10.7706 7.22123 10.6724 7.16867L10.6467 7.02884C10.3693 6.99083 10.3661 7.0522 10.282 6.82394C10.2566 6.75489 9.99725 6.67645 9.91539 6.62839C9.7965 6.55858 9.64714 6.44098 9.51731 6.38691C9.40219 6.35616 9.19055 6.33005 9.05834 6.30452C9.04241 6.19081 9.01364 6.14598 8.96228 6.04588C8.80559 6.0155 8.5095 6.00889 8.3887 5.95567C8.29288 5.77075 7.90844 5.64127 7.70403 5.66277C7.52953 5.68111 7.44198 5.61222 7.29448 5.54058C6.99886 5.39702 6.80084 5.35128 6.47747 5.34156C6.32805 5.30289 6.10778 5.36484 6.00433 5.30603C5.95261 5.21869 6.09497 4.99611 5.76489 5.00597C5.68422 5.00837 5.5822 5.00875 5.49845 5.01239C5.38291 5.00977 5.26736 5.00784 5.15178 5.00661L5.10512 5.00417L5.03219 5.00542C4.8487 4.99223 4.58405 4.9987 4.3945 4.99808C4.26223 4.97728 3.9255 4.98231 3.78331 4.98248C3.57498 4.93581 3.46256 4.94627 3.25114 4.94603C3.29933 4.94125 3.36498 4.92375 3.41264 4.91113L3.39189 4.90777L3.38133 4.89702L3.3463 4.90109L3.35072 4.88167C3.3773 4.86423 3.37972 4.85847 3.39919 4.83258L3.39408 4.82109C3.41245 4.79384 3.41147 4.79167 3.41269 4.75772C3.36569 4.72228 3.37483 4.73244 3.31094 4.72302L3.32189 4.69355C3.36889 4.70717 3.44122 4.70225 3.4863 4.68278C3.40356 4.64714 2.74764 4.65402 2.61687 4.65673L2.42797 4.65795C2.05534 4.6472 1.62123 4.65161 1.24699 4.65817C0.910673 4.66927 1.07064 4.61998 0.768244 4.44127C0.744706 4.40433 0.692866 4.38989 0.649447 4.37138C0.645363 4.24825 0.650987 4.12941 0.645081 3.99855L0.642158 3.90081L0.642906 3.78166L0.652877 3.68189C0.655109 3.56797 0.654214 3.45078 0.654756 3.33655C0.721766 3.33508 0.78978 3.32247 0.856175 3.31206C0.950081 3.17273 0.989459 3.16577 1.04057 3.00766L1.21006 2.998ZM4.32088 10.0037L4.00927 10.025C3.9847 10.1675 3.99302 10.203 3.97991 10.3341C3.89222 10.3392 3.69569 10.3347 3.63134 10.3609C3.48384 10.3885 3.41173 10.5386 3.35716 10.6694C3.3477 10.7501 3.33509 10.9522 3.35786 11.0259C3.37759 11.1178 3.40308 11.2295 3.44078 11.3151C3.512 11.3168 3.58594 11.3196 3.65694 11.3191C3.67075 11.3878 3.68256 11.457 3.69231 11.5264L3.69644 11.5924C3.76695 11.6512 3.88583 11.6344 3.98173 11.6326C4.0422 11.7087 4.293 11.9135 4.38116 11.9805C4.42859 12.0165 4.61225 11.9817 4.66834 12.0212C4.6855 12.0332 4.68967 12.1016 4.69309 12.1238C4.73675 12.1607 4.73616 12.1479 4.80959 12.1475C4.92159 12.2109 4.8273 12.218 4.8687 12.3041C4.96895 12.3516 5.24192 12.3435 5.36423 12.3448C5.30695 11.6535 5.33217 10.6707 5.33589 9.95698L5.34083 9.87L5.33881 9.85678L5.33609 9.66981C5.28277 9.63 4.90456 9.658 4.83358 9.66833C4.80142 9.67302 4.7695 9.67911 4.73788 9.68661C4.72972 9.80164 4.74353 9.91362 4.6695 9.98431L4.58797 9.99873L4.32088 10.0037Z" fill="#8EBEF9"/>
<path id="Vector_2" d="M4.00927 10.025L4.32087 10.0037L4.30823 10.0422L4.33944 10.0504C4.34644 10.1381 4.36855 10.2549 4.31248 10.3227C4.24934 10.3568 4.07722 10.3315 3.97991 10.3341C3.99302 10.203 3.9847 10.1675 4.00927 10.025Z" fill="#8EBEF9" fill-opacity="0.0431373"/>
<path id="Vector_3" d="M4.73787 9.68661C4.7695 9.67911 4.80142 9.67302 4.83358 9.66833C4.90456 9.658 5.28277 9.63 5.33609 9.66981C5.00878 9.65597 5.02914 9.65533 4.93756 9.96078C4.84237 9.97772 4.76689 9.98675 4.6695 9.98431C4.74353 9.91362 4.72972 9.80164 4.73787 9.68661Z" fill="#8EBEF9" fill-opacity="0.831373"/>
<path id="Vector_4" d="M4.93756 9.96078C5.02914 9.65533 5.00878 9.65597 5.33609 9.66981L5.33881 9.85678C5.31356 9.78317 5.33027 9.80181 5.27472 9.75298C5.14352 9.74923 5.14547 9.93002 5.08622 9.98842C4.95286 9.99334 4.71323 10.009 4.58797 9.99873L4.6695 9.98431C4.76689 9.98675 4.84237 9.97772 4.93756 9.96078Z" fill="#8EBEF9" fill-opacity="0.352941"/>
<path id="Vector_5" d="M3.35786 11.0259C3.43544 11.0647 3.61864 10.9761 3.65803 11.0735C3.67402 11.113 3.63064 11.2609 3.65694 11.3191C3.58594 11.3196 3.512 11.3168 3.44078 11.3151C3.40308 11.2295 3.37759 11.1178 3.35786 11.0259Z" fill="#8EBEF9" fill-opacity="0.356863"/>
<path id="Vector_6" d="M3.63134 10.3609C3.63448 10.4329 3.64841 10.5501 3.61995 10.6108C3.53072 10.696 3.46066 10.6283 3.35716 10.6694C3.41173 10.5386 3.48384 10.3885 3.63134 10.3609Z" fill="#8EBEF9" fill-opacity="0.027451"/>
<path id="Vector_7" d="M3.69231 11.5264C3.8235 11.5305 3.87047 11.3332 3.9633 11.39C4.00792 11.5008 3.9615 11.576 3.98173 11.6326C3.88583 11.6344 3.76695 11.6513 3.69644 11.5924L3.69231 11.5264Z" fill="#8EBEF9" fill-opacity="0.176471"/>
<path id="Vector_8" d="M5.15373 9.98356C5.16791 9.95669 5.16622 9.9337 5.16803 9.90316C5.21627 9.83322 5.27208 9.82436 5.34083 9.87L5.33589 9.95698C5.25792 9.98288 5.23689 9.98216 5.15373 9.98356Z" fill="#8EBEF9" fill-opacity="0.266667"/>
<path id="Vector_9" d="M5.08622 9.98842C5.14547 9.93002 5.14352 9.74923 5.27472 9.75298C5.33027 9.80181 5.31356 9.78317 5.33881 9.85678L5.34083 9.87C5.27208 9.82436 5.21627 9.83322 5.16803 9.90316C5.16622 9.9337 5.16791 9.95669 5.15373 9.98356L5.08622 9.98842Z" fill="#8EBEF9" fill-opacity="0.298039"/>
<path id="Vector_10" d="M12.3265 0.779078C12.3297 0.716467 12.3199 0.710578 12.3502 0.666334C12.4689 0.647873 13.247 0.638142 13.3716 0.655364C13.3714 0.726867 13.372 0.798369 13.3735 0.869856C13.38 0.936573 13.3683 0.92705 13.4072 0.964202C13.5082 1.00119 13.5954 0.953155 13.6588 0.997669C13.6549 1.1687 13.6547 1.3398 13.6582 1.51084C13.6537 1.62967 13.6349 2.27384 13.68 2.33033L13.762 2.33036C13.9339 2.34336 14.8625 2.3627 15.0031 2.33231C15.0108 2.42881 15.0172 2.54794 15.0298 2.64211C15.0792 2.63914 15.303 2.62536 15.3431 2.6328L15.3507 2.85022L15.3502 3.02863C15.3515 3.16277 15.3509 3.29692 15.3485 3.43105L15.349 3.67238C15.2555 3.67578 15.1017 3.67184 15.0072 3.6645C15.0073 3.74022 15.0216 3.95813 14.9853 4.00023C14.7385 3.99195 14.4605 4.00019 14.2114 4.00239C14.0267 3.99636 13.834 4.01677 13.6578 4.00095C13.659 4.26033 13.6585 4.5197 13.6564 4.77906C13.6551 4.91891 13.6455 5.23067 13.6694 5.35525C13.3522 5.38194 13.4383 5.35919 13.3536 5.64908C13.0618 5.66367 12.664 5.67253 12.3776 5.6357C12.3704 5.54681 12.3444 5.43563 12.3264 5.34644C12.2029 5.31428 12.1369 5.31189 12.014 5.32303C11.9987 4.88097 11.9939 4.43861 11.9997 3.99633C11.6062 4.006 11.0794 4.01403 10.6971 3.97317C10.6949 3.85828 10.6723 3.77841 10.6459 3.66673C10.5175 3.61942 10.478 3.62494 10.3432 3.6283C10.3164 3.32595 10.3316 2.97005 10.3387 2.6625C10.4349 2.64331 10.5308 2.62258 10.6263 2.60031L10.6417 2.35225C10.7417 2.34434 10.8724 2.34491 10.9748 2.3425C11.3132 2.33417 11.6585 2.34092 11.9987 2.33566C11.9994 2.19791 11.9872 2.10172 12.0026 1.96C11.9917 1.6447 12.0025 1.31082 12.0077 0.993994C12.111 0.9849 12.2147 0.98 12.3184 0.979309C12.3252 0.910466 12.3256 0.84785 12.3265 0.779078Z" fill="#2859C5"/>
<path id="Vector_11" d="M7.01377 9.98419C7.15075 10.03 7.21381 10.1299 7.34792 9.9975L7.36308 9.99673C7.32944 10.1359 7.34495 10.676 7.3427 10.8432C7.33466 11.4385 7.35664 12.0619 7.33884 12.6553L7.19955 12.6568L7.22275 12.608C7.20397 12.5781 7.10423 12.5881 7.10316 12.5684C7.09381 12.396 7.07323 12.2182 7.07528 12.0458C7.08256 11.435 7.07792 10.8242 7.08931 10.2136C7.09002 10.1757 7.07655 10.1354 7.06186 10.1008C7.04336 10.0826 7.04439 10.067 7.03997 10.0405L7.03819 10.0293L7.01277 10.0429L7.01377 9.98419Z" fill="#8DBFFA" fill-opacity="0.541176"/>
<path id="Vector_12" d="M11.0539 2.04889C11.3696 1.98075 11.5969 2.00414 11.9166 2.00184C11.971 2.00145 11.9742 1.99258 12.0026 1.96C11.9872 2.10172 11.9994 2.19791 11.9987 2.33566C11.6585 2.34092 11.3132 2.33417 10.9748 2.3425C10.998 2.33519 11.0222 2.32634 11.0454 2.3183C10.9855 2.30181 10.7576 2.31977 10.6821 2.32359C10.628 2.26441 10.6397 2.11172 10.6407 2.03134L11 2.03247C10.9983 2.08833 10.9935 2.2408 11.0121 2.28589C11.039 2.23395 11.046 2.11411 11.0539 2.04889Z" fill="#2859C5" fill-opacity="0.184314"/>
<path id="Vector_13" d="M1.24699 4.65817C1.62123 4.65161 2.05534 4.6472 2.42797 4.65795C2.45787 4.66456 2.5887 4.68652 2.60294 4.69506C2.59502 4.71108 2.58708 4.72711 2.57916 4.74313C2.66064 4.85205 2.56719 4.80605 2.63073 4.89703C2.4995 4.89797 1.52323 4.90034 1.46322 4.94589C1.52451 4.95009 1.64872 4.95481 1.70316 4.97019L1.71344 4.98256C1.61377 4.98948 1.48786 4.98002 1.38581 4.97498C1.39188 4.90023 1.44402 4.71917 1.42694 4.68406C1.37021 4.66497 1.307 4.66291 1.24699 4.65817Z" fill="#8EBEF9" fill-opacity="0.360784"/>
<path id="Vector_14" d="M13.6578 4.00095C13.834 4.01677 14.0268 3.99636 14.2114 4.00239C14.1321 4.01109 14.065 4.01538 13.9858 4.01906C14.0151 4.20767 14.0304 4.65398 13.9314 4.82619C13.8858 4.90544 13.7729 4.89064 13.6937 4.89092C13.6337 4.97255 13.688 5.24337 13.6694 5.35525C13.6455 5.23067 13.6551 4.91891 13.6564 4.77906C13.6585 4.5197 13.659 4.26033 13.6578 4.00095Z" fill="#2859C5" fill-opacity="0.294118"/>
<path id="Vector_15" d="M13.6588 0.997669C13.6918 1.13208 13.6475 1.29741 13.6819 1.42541L13.7011 1.39172L13.7122 1.43193C13.767 1.41503 13.8616 1.37663 13.9111 1.39373C14.0177 1.48234 14.0015 1.86345 13.9892 2.00056C14.137 2.00516 14.4857 1.98889 14.5996 2.04008C14.6728 2.13142 14.5813 2.30134 14.5904 2.32873C14.4689 2.33758 14.2075 2.32887 14.076 2.32845L14.0619 2.31297L14.0666 2.3023C14.1755 2.25838 14.3794 2.29477 14.4983 2.25395C14.5107 2.24972 14.5224 2.24669 14.5251 2.23597C14.5323 2.20838 14.5225 2.15503 14.5112 2.13055C14.4572 2.01359 14.264 2.07331 14.1624 2.06377C14.1087 2.0587 14.0598 2.04153 14.0069 2.02339L13.9871 2.01114C13.9305 1.99298 13.7499 1.99256 13.6807 1.9905C13.6749 1.98448 13.6691 1.97845 13.6634 1.97242C13.6769 1.84538 13.6679 1.6273 13.6582 1.51084C13.6547 1.3398 13.6549 1.1687 13.6588 0.997669Z" fill="#2859C5" fill-opacity="0.290196"/>
<path id="Vector_16" d="M12.0011 9.24361L12.0169 9.3608C12.0137 9.48653 11.9937 9.57477 12.0674 9.67273C12.1052 9.6967 12.1199 9.70281 12.1645 9.69427C12.2112 9.68511 12.2549 9.66455 12.2918 9.63441C12.2879 9.82694 12.2667 9.99998 12.2647 10.1892C12.2635 10.3041 12.3094 10.485 12.2763 10.5901C11.9717 10.6613 12.0003 10.6174 12.0217 10.961L12.0034 11.0526C11.9965 10.946 11.9988 10.8133 12.0009 10.7058C12.0103 10.2192 11.9905 9.72966 12.0011 9.24361Z" fill="#8EBEF9" fill-opacity="0.521569"/>
<path id="Vector_17" d="M2.61687 4.65673C2.74764 4.65402 3.40356 4.64714 3.4863 4.68278C3.44122 4.70225 3.36889 4.70717 3.32189 4.69355L3.31094 4.72302C3.37483 4.73244 3.36569 4.72228 3.41269 4.75772C3.41147 4.79167 3.41245 4.79384 3.39408 4.82109L3.39919 4.83258C3.37972 4.85847 3.3773 4.86423 3.35072 4.88167L3.3463 4.90109C3.25547 4.89856 2.81617 4.90998 2.758 4.94814C2.78239 4.97198 2.80106 4.97067 2.83756 4.98037C2.78313 4.98091 2.71434 4.99078 2.67991 4.94525C2.71409 4.87214 2.75042 4.81706 2.70909 4.74264C2.68639 4.70173 2.74588 4.69475 2.74961 4.68231C2.73556 4.68833 2.67072 4.66464 2.61687 4.65673Z" fill="#8EBEF9" fill-opacity="0.607843"/>
<path id="Vector_18" d="M7.01245 7.97289C7.06316 7.96995 7.04636 7.97789 7.07889 7.94705C7.09867 7.78194 7.01636 7.32569 7.10241 7.20211C7.14094 7.17614 7.14938 7.17727 7.19641 7.17631C7.37202 7.26928 7.22395 7.75583 7.32931 7.99158L7.33816 7.99613L7.26905 8.00184C7.20812 8.00195 7.04831 8.01191 7.01245 7.97289Z" fill="#8EBEF9" fill-opacity="0.521569"/>
<path id="Vector_19" d="M6.01647 15.3462C6.22775 15.348 6.43905 15.3485 6.65033 15.348C6.6105 15.3596 6.57058 15.3709 6.53058 15.3819C6.55441 15.3966 6.62291 15.3848 6.65784 15.3821C6.67464 15.4137 6.66483 15.6262 6.62828 15.6602L6.59984 15.6491C6.60942 15.5948 6.64181 15.4492 6.60658 15.413C6.56683 15.4447 6.58005 15.5495 6.56956 15.6308C6.4933 15.665 6.13228 15.6647 6.06138 15.6115C6.03539 15.556 6.06297 15.453 6.07314 15.3845L6.01647 15.3462Z" fill="#8EBEF9" fill-opacity="0.0862745"/>
<path id="Vector_20" d="M1.64 10.3432C1.64105 10.2614 1.63914 10.075 1.65264 10.003C1.66708 10.123 1.6548 11.2736 1.64166 11.3347L1.63605 11.2298C1.64988 10.9025 1.62136 11.0747 1.3695 10.9598C1.35821 10.7904 1.35489 10.6801 1.38713 10.5137C1.46973 10.4568 1.52879 10.4265 1.63094 10.4129L1.64 10.3432Z" fill="#8EBEF9" fill-opacity="0.462745"/>
<path id="Vector_21" d="M5.49845 5.01239C5.5822 5.00875 5.68422 5.00837 5.76489 5.00597C6.09497 4.99611 5.95261 5.21869 6.00433 5.30603C6.10778 5.36484 6.32805 5.30289 6.47747 5.34156C6.21327 5.35078 5.91589 5.34375 5.64927 5.34317C5.59338 5.32858 5.49517 5.32134 5.43481 5.31503C5.60277 5.15892 5.49994 5.18878 5.52608 5.04913L5.49845 5.01239Z" fill="#8EBEF9" fill-opacity="0.745098"/>
<path id="Vector_22" d="M9.31683 14.3409C9.37136 14.292 9.63377 14.351 9.74077 14.3148C9.82286 14.2351 9.69061 14.1978 9.70194 14.0666C9.76369 13.991 10.1049 13.9986 10.1981 14.0165L10.1855 14.0462C10.2247 14.0969 10.2217 14.0777 10.2207 14.1333C10.1988 14.1593 10.1773 14.1856 10.1559 14.2121C10.1758 14.2995 10.222 14.245 10.2105 14.3044C10.0829 14.3595 9.46609 14.3512 9.31683 14.3409Z" fill="#8EBEF9" fill-opacity="0.858824"/>
<path id="Vector_23" d="M7.00037 6.90447C7.00845 6.9432 7.01958 7.02345 7.04338 7.04933C7.13181 7.02497 7.30983 6.96736 7.32741 7.11327C7.34986 7.29973 7.38497 7.82828 7.32931 7.99158C7.22395 7.75583 7.37202 7.26928 7.19641 7.17631C7.14938 7.17727 7.14094 7.17614 7.10241 7.20211C7.01636 7.32569 7.09867 7.78194 7.07889 7.94705C7.04636 7.97789 7.06316 7.96995 7.01245 7.97289C6.99305 7.62273 7.01936 7.25684 7.00037 6.90447Z" fill="#8EBEF9" fill-opacity="0.447059"/>
<path id="Vector_24" d="M7.03961 9.66422C7.13369 9.66163 7.58311 9.65055 7.63481 9.6922C7.51866 9.78277 7.60645 9.7678 7.62122 9.87644C7.57525 9.90652 7.504 9.88363 7.44461 9.9255C7.44361 9.96266 7.46241 9.98403 7.49998 9.99478L7.36308 9.99673L7.34792 9.9975C7.33675 10.0014 7.31864 10.0071 7.30691 10.0066C7.07189 9.99689 7.07173 9.88764 7.06122 9.69892L7.23158 9.68486C7.16158 9.6802 7.10894 9.67481 7.03961 9.66422Z" fill="#8EBEF9" fill-opacity="0.788235"/>
<path id="Vector_25" d="M2.42797 4.65795L2.61687 4.65673C2.67072 4.66464 2.73556 4.68833 2.74961 4.68231C2.74588 4.69475 2.68639 4.70173 2.70909 4.74264C2.75042 4.81706 2.71409 4.87214 2.67991 4.94525C2.71434 4.99078 2.78313 4.98091 2.83756 4.98037C3.1408 4.98422 3.48336 4.99575 3.78331 4.98248C3.9255 4.98231 4.26223 4.97728 4.3945 4.99808C4.22864 5.01408 3.80486 5.00111 3.61412 5.00128C2.98052 5.00198 2.34691 4.99575 1.71344 4.98256L1.70316 4.97019C1.64872 4.95481 1.52451 4.95009 1.46322 4.94589C1.52323 4.90034 2.4995 4.89797 2.63073 4.89703C2.56719 4.80605 2.66064 4.85205 2.57916 4.74312C2.58708 4.72711 2.59502 4.71108 2.60294 4.69506C2.5887 4.68652 2.45787 4.66456 2.42797 4.65795Z" fill="#8EBEF9" fill-opacity="0.415686"/>
<path id="Vector_26" d="M1.63605 11.2298L1.60855 11.2303C1.57397 11.3058 1.51578 11.3484 1.42881 11.3357C1.41489 11.3281 1.37006 11.308 1.3673 11.2905C1.32433 11.0001 1.29747 10.6586 1.35357 10.37C1.36692 10.3014 1.58608 10.3148 1.64 10.3432L1.63094 10.4129C1.52879 10.4265 1.46973 10.4568 1.38713 10.5137C1.35489 10.6801 1.35821 10.7904 1.3695 10.9598C1.62136 11.0747 1.64987 10.9025 1.63605 11.2298Z" fill="#8EBEF9" fill-opacity="0.184314"/>
<path id="Vector_27" d="M1.21006 2.998C1.41946 2.95484 1.89597 2.98367 2.12845 2.98317C2.95998 2.98141 3.79498 2.9647 4.62542 3.00797C4.67963 3.0108 4.78266 3.03317 4.82598 3.02938C5.09802 3.11475 4.9155 3.28786 4.73445 3.303C4.77731 3.30659 4.79728 3.30011 4.82312 3.32461C4.75452 3.33003 4.68356 3.34948 4.63233 3.30083C4.61042 3.20344 4.72153 3.13848 4.64645 3.06163C4.39475 2.99 3.72847 2.99497 3.4498 3.00272C3.25473 2.99512 3.00439 2.99434 2.8107 3.00233C2.27845 2.9952 1.74275 3.00759 1.21006 2.998Z" fill="#8EBEF9" fill-opacity="0.207843"/>
<path id="Vector_28" d="M3.98372 8.34391C4.04372 8.33042 4.17039 8.33433 4.20478 8.30466C4.17984 8.27903 4.16608 8.27119 4.1628 8.23794C4.33091 7.94725 4.61748 7.98252 4.91884 8.00119C4.75008 8.03978 4.66509 7.95684 4.6502 8.19502C4.6478 8.23331 4.64433 8.28456 4.62109 8.31542C4.50909 8.34167 4.09945 8.35394 3.98372 8.34391Z" fill="#8EBEF9" fill-opacity="0.792157"/>
<path id="Vector_29" d="M7.47361 14.3445C7.79638 14.3458 8.15894 14.332 8.47467 14.3455C8.40038 14.3518 8.07287 14.3571 8.03423 14.3723L8.03073 14.3782C8.01873 14.4752 7.97419 14.4649 7.98158 14.5312L8.02919 14.579L8.02408 14.6046C7.93677 14.6514 7.6645 14.6382 7.55258 14.6376C7.7138 14.5829 7.79711 14.6254 7.91755 14.5945C7.78886 14.5719 7.53923 14.597 7.47327 14.5098L7.4537 14.5196L7.4717 14.5297L7.45363 14.5225C7.4928 14.4925 7.47959 14.473 7.47384 14.4304C7.49572 14.424 7.50984 14.4226 7.52473 14.4056C7.43863 14.3952 7.44981 14.4086 7.387 14.3632L7.47361 14.3445Z" fill="#8EBEF9" fill-opacity="0.482353"/>
<path id="Vector_30" d="M2.8107 3.00233C3.00439 2.99434 3.25473 2.99512 3.4498 3.00272C3.59916 3.01383 4.26312 3.01112 4.33019 3.08328C4.35278 3.15655 4.37614 3.24053 4.32059 3.30334C4.35227 3.3408 4.51825 3.33416 4.5785 3.34214C4.30119 3.35705 3.78213 3.33145 3.49542 3.32003C3.51506 3.3105 3.66647 3.31156 3.69566 3.31355C3.88033 3.32609 4.01364 3.29748 4.19214 3.26145C4.17397 3.24561 4.03273 3.09445 4.03634 3.09545C3.7722 3.02314 3.51306 3.15233 3.26177 3.02544C3.25644 3.02275 2.8505 3.00514 2.8107 3.00233Z" fill="#8EBEF9" fill-opacity="0.670588"/>
<path id="Vector_31" d="M7.01277 10.0429L7.03819 10.0293L7.03997 10.0405C7.04439 10.067 7.04336 10.0826 7.06186 10.1008C7.08691 10.889 7.02744 11.694 7.07381 12.4835C7.0768 12.5344 7.08134 12.6243 7.05577 12.6684L7.02695 12.6635C6.98547 12.5807 7.00486 10.305 7.01277 10.0429Z" fill="#8EBEF9" fill-opacity="0.462745"/>
<path id="Vector_32" d="M4.82598 3.02938C4.98802 3.01781 5.17661 3.03345 5.34375 3.03125C5.34028 3.121 5.32403 3.23131 5.37164 3.30453L5.43538 3.34528L5.17603 3.34138C5.11042 3.33022 4.89984 3.32739 4.82312 3.32461C4.79728 3.30011 4.77731 3.30659 4.73445 3.303C4.9155 3.28786 5.09802 3.11475 4.82598 3.02938Z" fill="#8EBEF9" fill-opacity="0.0117647"/>
<path id="Vector_33" d="M8.47467 14.3455C8.64492 14.3429 8.81519 14.3429 8.98544 14.3456C8.84834 14.3747 8.66633 14.3388 8.55172 14.3687C8.56342 14.374 8.57366 14.3803 8.58453 14.3871C8.58025 14.4528 8.58519 14.5774 8.55298 14.6191C8.43056 14.6659 8.1105 14.6658 7.97517 14.6565C8.05091 14.6304 8.27545 14.6396 8.40616 14.5949C8.32116 14.5902 8.28794 14.5609 8.22111 14.5344C8.20772 14.5291 8.12086 14.5644 8.06505 14.5324C8.06023 14.4962 8.08067 14.4634 8.0958 14.4247L8.07738 14.3873L8.03073 14.3782L8.03423 14.3723C8.07287 14.3571 8.40038 14.3518 8.47467 14.3455Z" fill="#8EBEF9" fill-opacity="0.262745"/>
<path id="Vector_34" d="M8.86581 12.6512C8.92594 12.6386 9.00797 12.6373 9.04181 12.6058C9.02622 12.5681 9.02186 12.5536 9.01295 12.5137C9.11811 12.3079 9.71111 12.3155 9.91219 12.3458C9.72419 12.3699 9.42347 12.4578 9.31734 12.6208C9.23669 12.6608 8.97142 12.651 8.86581 12.6512Z" fill="#8EBEF9" fill-opacity="0.12549"/>
<path id="Vector_35" d="M13.6583 11.6739C13.6494 11.5314 13.6513 10.9735 13.6823 10.8459L13.6939 10.8463C13.6953 10.8827 13.6975 10.9191 13.7003 10.9553C13.7764 10.9583 13.9346 10.9886 13.9812 10.9712L14.0015 10.8875C14.0082 11.1596 14.0768 11.3484 13.7319 11.3349L13.6784 11.3325C13.6723 11.408 13.6717 11.6297 13.6583 11.6739Z" fill="#8EBEF9" fill-opacity="0.733333"/>
<path id="Vector_36" d="M13.6586 8.50858C13.665 8.58477 13.6567 8.63187 13.6955 8.68998C13.7301 8.6997 13.9052 8.66817 13.9788 8.66413C13.9944 8.80517 14.0162 9.01687 14.0001 9.15777C13.9592 8.82791 13.7857 9.09494 13.6734 9.09527C13.6485 9.01731 13.655 8.6077 13.6586 8.50858Z" fill="#8EBEF9" fill-opacity="0.411765"/>
<path id="Vector_37" d="M3.4498 3.00272C3.72847 2.99497 4.39475 2.99 4.64645 3.06162C4.72153 3.13848 4.61042 3.20344 4.63233 3.30083C4.68356 3.34948 4.75452 3.33003 4.82312 3.32461C4.89984 3.32739 5.11042 3.33022 5.17603 3.34138C5.0018 3.35181 4.7578 3.34375 4.5785 3.34214C4.51825 3.33416 4.35227 3.3408 4.32059 3.30334C4.37614 3.24053 4.35278 3.15655 4.33019 3.08328C4.26312 3.01112 3.59916 3.01383 3.4498 3.00272Z" fill="#8EBEF9" fill-opacity="0.478431"/>
<path id="Vector_38" d="M7.26905 8.00184L7.33816 7.99613C7.43192 7.99819 7.54289 8.00161 7.63547 7.99705C7.95883 7.98109 8.01323 8.01017 7.95758 8.3323C7.88069 8.3362 7.76345 8.32427 7.68375 8.31856L7.61019 8.01753C7.5272 8.01791 7.34053 8.02341 7.26905 8.00184Z" fill="#8EBEF9" fill-opacity="0.803922"/>
<path id="Vector_39" d="M14.0069 2.02339C14.0598 2.04153 14.1087 2.0587 14.1624 2.06377C14.264 2.07331 14.4572 2.01359 14.5112 2.13055C14.5225 2.15503 14.5323 2.20838 14.5251 2.23597C14.5224 2.24669 14.5107 2.24972 14.4983 2.25395C14.3794 2.29477 14.1755 2.25838 14.0666 2.3023L14.0619 2.31297L14.076 2.32845C14.0426 2.32692 14.0392 2.32828 14.0112 2.31189C14.0023 2.25539 14.0082 2.09458 14.0069 2.02339Z" fill="#2859C5" fill-opacity="0.32549"/>
<path id="Vector_40" d="M5.15178 5.00661C5.26736 5.00784 5.38291 5.00977 5.49845 5.01239L5.52608 5.04913C5.49994 5.18878 5.60277 5.15892 5.43481 5.31503C5.49517 5.32134 5.59338 5.32858 5.64927 5.34317C5.55609 5.3552 5.42339 5.35322 5.3297 5.34637C5.27642 5.33373 5.25438 5.33169 5.20981 5.29939C5.17531 5.24177 5.20516 5.21369 5.1942 5.13241C5.1513 5.08903 5.17286 5.1017 5.10992 5.08734L5.11298 5.07467C5.18906 5.00722 5.19439 5.06352 5.27008 5.05466L5.2658 5.03666C5.23016 5.02377 5.20945 5.02858 5.17205 5.03152L5.15178 5.00661Z" fill="#8EBEF9" fill-opacity="0.113725"/>
<path id="Vector_41" d="M5.63211 3.34488C5.80433 3.33428 6.03869 3.33489 6.21047 3.34661C6.36303 3.357 6.46936 3.39122 6.63413 3.38359C6.63236 3.44914 6.60291 3.62406 6.61108 3.64516C6.43788 3.63348 6.53063 3.56044 6.3847 3.51027C6.12566 3.42122 5.89422 3.39144 5.63211 3.34488Z" fill="#8EBEF9" fill-opacity="0.105882"/>
<path id="Vector_42" d="M12.3217 9.33134C12.3255 9.41516 12.3345 9.53222 12.3271 9.61319C12.3146 9.61958 12.3009 9.62478 12.2918 9.63441C12.2549 9.66455 12.2112 9.68511 12.1645 9.69427C12.1199 9.70281 12.1052 9.6967 12.0674 9.67273C11.9937 9.57477 12.0137 9.48653 12.0169 9.3608C12.1316 9.32209 12.2012 9.3307 12.3217 9.33134Z" fill="#8EBEF9" fill-opacity="0.74902"/>
<path id="Vector_43" d="M7.01614 14.3515C7.14003 14.3592 7.32977 14.3402 7.47361 14.3445L7.387 14.3632L7.36147 14.371C7.38844 14.4485 7.38331 14.5883 7.31231 14.6428C7.19844 14.6668 7.09631 14.6223 7.01397 14.6195C7.01814 14.5265 7.0175 14.4443 7.01614 14.3515Z" fill="#8EBEF9" fill-opacity="0.807843"/>
<path id="Vector_44" d="M15.349 3.67237L15.3463 3.67861C15.2518 3.90377 15.4571 4.02784 14.9853 4.00023C15.0216 3.95813 15.0073 3.74022 15.0072 3.6645C15.1017 3.67184 15.2555 3.67578 15.349 3.67237ZM15.2846 3.96861C15.2792 3.9155 15.287 3.89794 15.3066 3.84984L15.2957 3.8223C15.249 3.80773 15.2285 3.80936 15.1811 3.80884C15.1502 3.72986 15.2086 3.77073 15.152 3.71727L15.12 3.70992L15.1259 3.72222C15.1593 3.79281 15.1573 3.80755 15.1475 3.88498C15.1984 3.93448 15.2019 3.90088 15.2602 3.93373C15.2717 3.94023 15.2413 3.96192 15.2846 3.96861Z" fill="#2859C5" fill-opacity="0.101961"/>
<path id="Vector_45" d="M15.12 3.70992L15.152 3.71727C15.2086 3.77073 15.1502 3.72986 15.1811 3.80884C15.2285 3.80936 15.249 3.80773 15.2957 3.8223L15.3066 3.84984C15.287 3.89794 15.2792 3.9155 15.2846 3.96861C15.2413 3.96192 15.2717 3.94023 15.2602 3.93373C15.2019 3.90088 15.1984 3.93448 15.1475 3.88498C15.1573 3.80755 15.1593 3.79281 15.1259 3.72222L15.12 3.70992Z" fill="#2859C5" fill-opacity="0.0823529"/>
<path id="Vector_46" d="M12.0217 10.961C12.0003 10.6174 11.9717 10.6613 12.2763 10.5901L12.3267 10.647C12.3383 10.7244 12.329 10.8202 12.3246 10.8998C12.1109 11.0172 12.1189 10.8652 12.0217 10.961Z" fill="#8EBEF9" fill-opacity="0.862745"/>
<path id="Vector_47" d="M12.0077 0.993994C12.0107 0.901359 11.9744 0.689844 12.054 0.640825C12.1642 0.692359 12.1727 0.64198 12.2758 0.661495C12.2893 0.701331 12.2934 0.728995 12.3005 0.769753L12.3265 0.779078C12.3256 0.84785 12.3252 0.910466 12.3184 0.979309C12.2147 0.98 12.111 0.9849 12.0077 0.993994ZM12.0576 0.817647C12.0739 0.764781 12.0853 0.744027 12.0681 0.691605L12.0303 0.660806C12.0228 0.708531 12.0109 0.750956 12.0314 0.794694L12.0576 0.817647Z" fill="#2859C5" fill-opacity="0.0313725"/>
<path id="Vector_48" d="M12.0303 0.660806L12.0681 0.691605C12.0853 0.744027 12.0739 0.764781 12.0576 0.817647L12.0314 0.794694C12.0109 0.750956 12.0228 0.708531 12.0303 0.660806Z" fill="#2859C5" fill-opacity="0.0823529"/>
<path id="Vector_49" d="M13.6582 1.51084C13.6679 1.6273 13.6769 1.84538 13.6634 1.97242C13.6691 1.97845 13.6749 1.98448 13.6807 1.9905C13.7499 1.99256 13.9305 1.99298 13.9871 2.01114C13.969 2.07231 13.9304 2.24472 13.8987 2.27552C13.8256 2.28498 13.8161 2.26681 13.7692 2.29855L13.762 2.33036L13.68 2.33033C13.6349 2.27384 13.6537 1.62967 13.6582 1.51084Z" fill="#2859C5" fill-opacity="0.572549"/>
<path id="Vector_50" d="M5.33684 7.5895C5.2997 7.54597 5.31878 6.69958 5.36008 6.65841C5.42177 6.6585 5.45919 6.66358 5.52056 6.67208L5.48519 6.69481C5.52098 6.71103 5.58858 6.67439 5.63498 6.65706C5.60823 6.86492 5.46342 6.9692 5.3672 7.07848C5.33116 7.11942 5.33661 7.50186 5.33684 7.5895Z" fill="#8EBEF9" fill-opacity="0.054902"/>
<path id="Vector_51" d="M15.0031 2.33231C15.0469 2.37311 15.0361 2.37731 15.0829 2.37533C15.1774 2.3713 15.2412 2.35861 15.337 2.36083C15.3383 2.43213 15.3367 2.5665 15.3431 2.6328C15.303 2.62536 15.0792 2.63914 15.0298 2.64211C15.0172 2.54794 15.0108 2.42881 15.0031 2.33231Z" fill="#2859C5" fill-opacity="0.627451"/>
<path id="Vector_52" d="M8.55728 3.99673C9.18617 4.01894 8.8727 4.10056 8.93325 4.29705C8.98128 4.34139 9.01044 4.33234 9.08412 4.34244C8.49656 4.37639 8.82 4.12903 8.55728 3.99673Z" fill="#8EBEF9" fill-opacity="0.478431"/>
<path id="Vector_53" d="M7.01581 14.6887L7.04012 14.6805C7.14094 14.7106 7.26381 14.7148 7.34912 14.6508L7.35764 14.6668C7.34041 14.7835 7.34739 14.861 7.33758 14.9724C7.24233 14.9925 7.17066 15.0112 7.07802 14.9704C7.08228 14.912 7.10188 14.8121 7.0427 14.7863L7.00919 14.8154L7.01581 14.6887ZM7.2705 14.9518C7.20561 14.9004 7.17023 14.9142 7.09163 14.9292C7.1548 14.9858 7.1957 14.9823 7.2705 14.9518Z" fill="#8CC0FD" fill-opacity="0.345098"/>
<path id="Vector_54" d="M7.09163 14.9292C7.17023 14.9142 7.20561 14.9004 7.2705 14.9518C7.1957 14.9823 7.1548 14.9858 7.09163 14.9292Z" fill="#8EBEF9" fill-opacity="0.376471"/>
<path id="Vector_55" d="M11.6958 5.74892L11.7267 5.76416C11.825 5.71992 11.8074 5.65494 11.947 5.67194C12.0489 5.75094 11.9447 5.91552 11.9972 5.99633C11.885 5.97784 11.8185 5.9615 11.7089 5.93016C11.6893 5.88117 11.6782 5.80159 11.6958 5.74892Z" fill="#8EBEF9" fill-opacity="0.709804"/>
<path id="Vector_56" d="M9.99327 10.3713C9.98881 10.4412 9.98919 10.5505 9.9587 10.6091C9.85875 10.6822 9.79555 10.6281 9.68098 10.6453C9.76506 10.467 9.7095 10.4553 9.73692 10.3852C9.79795 10.366 9.92439 10.3714 9.99327 10.3713Z" fill="#8EBEF9" fill-opacity="0.254902"/>
<path id="Vector_57" d="M12.0112 6.00637C12.1339 6.00056 12.2437 5.97348 12.3293 6.04645C12.3753 6.14995 12.3323 6.24136 12.3459 6.3312C12.2814 6.29505 12.1905 6.23375 12.1305 6.18808C12.0196 6.10377 12.0278 6.12273 12.0112 6.00637Z" fill="#8EBEF9" fill-opacity="0.823529"/>
<path id="Vector_58" d="M11.0201 11.9888C11.0541 11.9117 10.9788 11.7475 11.0327 11.6602C11.0971 11.6522 11.0957 11.6989 11.1639 11.7044C11.2498 11.7112 11.2916 11.6509 11.3552 11.6584C11.2384 11.8053 11.2674 11.9419 11.0201 11.9888Z" fill="#8EBEF9" fill-opacity="0.113725"/>
<path id="Vector_59" d="M7.01397 14.6195C7.09631 14.6223 7.19844 14.6668 7.31231 14.6428C7.38331 14.5883 7.38844 14.4485 7.36147 14.371L7.387 14.3632C7.44981 14.4086 7.43863 14.3952 7.52473 14.4056C7.50984 14.4226 7.49572 14.424 7.47384 14.4304C7.47959 14.473 7.4928 14.4925 7.45363 14.5225L7.4717 14.5297L7.4537 14.5196L7.47327 14.5098C7.53923 14.597 7.78886 14.5719 7.91755 14.5945C7.79711 14.6254 7.7138 14.5829 7.55258 14.6376C7.44934 14.6398 7.43203 14.6149 7.34912 14.6508C7.26381 14.7148 7.14094 14.7106 7.04012 14.6805L7.01581 14.6887L7.01397 14.6195Z" fill="#8EBEF9" fill-opacity="0.517647"/>
<path id="Vector_60" d="M4.89889 14.0165C5.03362 14.009 5.18686 14.0195 5.32309 14.0256C5.32558 14.0966 5.33498 14.2653 5.32903 14.3289C5.29136 14.3262 5.25753 14.3226 5.22017 14.3182C5.09128 14.2374 5.19433 14.0532 4.89889 14.0165Z" fill="#8EBEF9" fill-opacity="0.843137"/>
<path id="Vector_61" d="M7.06186 10.1008C7.07655 10.1354 7.09002 10.1757 7.08931 10.2136C7.07792 10.8242 7.08256 11.435 7.07528 12.0458C7.07323 12.2182 7.09381 12.396 7.10316 12.5684C7.10423 12.5881 7.20397 12.5781 7.22275 12.608L7.19955 12.6568C7.15484 12.6577 7.10119 12.6641 7.05577 12.6684C7.08134 12.6243 7.0768 12.5344 7.07381 12.4835C7.02744 11.694 7.08691 10.889 7.06186 10.1008Z" fill="#8EBEF9" fill-opacity="0.498039"/>
<path id="Vector_62" d="M0.344483 3.97794C0.341489 3.87822 0.327703 3.80811 0.383742 3.72606C0.458777 3.66392 0.576984 3.74703 0.652877 3.68189L0.642906 3.78166C0.535219 3.77123 0.621327 3.72733 0.525844 3.75591C0.458267 3.82053 0.463453 3.87398 0.524742 3.93648C0.565358 3.94877 0.570406 3.95284 0.610472 3.94478L0.614183 3.89061C0.623225 3.89342 0.635131 3.89595 0.642158 3.90081L0.645081 3.99855L0.621439 3.98553C0.526392 4.02597 0.438019 4.00773 0.344483 3.97794Z" fill="#8EBEF9" fill-opacity="0.117647"/>
<path id="Vector_63" d="M8.03073 14.3782L8.07738 14.3873L8.0958 14.4247C8.08067 14.4634 8.06023 14.4962 8.06505 14.5324C8.12086 14.5644 8.20772 14.5291 8.22111 14.5344C8.28794 14.5609 8.32116 14.5902 8.40616 14.5949C8.27545 14.6396 8.05091 14.6304 7.97517 14.6565C7.85803 14.6653 7.40958 14.6486 7.35764 14.6668L7.34912 14.6508C7.43203 14.6149 7.44934 14.6398 7.55258 14.6376C7.6645 14.6382 7.93677 14.6514 8.02408 14.6046L8.02919 14.579L7.98158 14.5312C7.97419 14.4649 8.01873 14.4752 8.03073 14.3782Z" fill="#8EBEF9" fill-opacity="0.317647"/>
<path id="Vector_64" d="M5.32903 14.3289L5.34994 14.3797C5.33442 14.677 5.39736 14.6765 5.57153 14.9048C5.58522 14.9228 5.61463 14.945 5.63284 14.9589L5.64319 15.0066C5.50795 14.9087 5.44917 15.0045 5.35934 14.9417C5.31933 14.8556 5.32964 14.4452 5.32903 14.3289Z" fill="#8EBEF9" fill-opacity="0.611765"/>
<path id="Vector_65" d="M13.6118 7.74516C13.6259 7.80939 13.6468 7.91916 13.6773 7.97361C13.6789 8.06123 13.6869 8.17786 13.6608 8.25961C13.6627 7.87073 13.4881 8.12564 13.3919 7.92625C13.484 7.87578 13.4259 7.83055 13.6118 7.74516Z" fill="#8EBEF9" fill-opacity="0.101961"/>
<path id="Vector_66" d="M12.2918 9.63441C12.3009 9.62478 12.3146 9.61958 12.3271 9.61319C12.3412 9.95764 12.3411 10.3025 12.3267 10.647L12.2763 10.5901C12.3094 10.485 12.2635 10.3041 12.2647 10.1892C12.2667 9.99998 12.2879 9.82694 12.2918 9.63441Z" fill="#8EBEF9" fill-opacity="0.498039"/>
<path id="Vector_67" d="M2.83756 4.98037C2.80106 4.97067 2.78239 4.97198 2.758 4.94814C2.81617 4.90998 3.25547 4.89856 3.3463 4.90109L3.38133 4.89702L3.39189 4.90777L3.41264 4.91113C3.36498 4.92375 3.29933 4.94125 3.25114 4.94603C3.46256 4.94627 3.57498 4.93581 3.78331 4.98248C3.48336 4.99575 3.1408 4.98422 2.83756 4.98037Z" fill="#8EBEF9" fill-opacity="0.647059"/>
<path id="Vector_68" d="M5.34994 14.3797C5.3682 14.4403 5.3732 14.552 5.40869 14.5926C5.48775 14.6145 5.54405 14.6249 5.62208 14.6544C5.61573 14.7772 5.62027 14.8358 5.63284 14.9589C5.61463 14.945 5.58522 14.9228 5.57153 14.9048C5.39736 14.6765 5.33442 14.677 5.34994 14.3797Z" fill="#8EBEF9" fill-opacity="0.913725"/>
<path id="Vector_69" d="M13.356 7.66134C13.4542 7.65839 13.5505 7.65495 13.6488 7.65625C13.6566 7.73167 13.6787 7.90583 13.6773 7.97361C13.6468 7.91916 13.6259 7.80939 13.6118 7.74516C13.4259 7.83055 13.484 7.87578 13.3919 7.92625C13.3752 7.87733 13.3623 7.72147 13.356 7.66134Z" fill="#8EBEF9" fill-opacity="0.0117647"/>
<path id="Vector_70" d="M15.3507 2.85022C15.3583 2.89395 15.3715 3.01355 15.3852 3.04375C15.4041 3.02284 15.4208 2.99283 15.4496 2.9943C15.5381 2.99883 15.6286 3.03123 15.637 3.13083C15.6492 3.27419 15.4642 3.37642 15.3787 3.24922L15.3828 3.22883C15.409 3.24855 15.4131 3.25417 15.4443 3.26109C15.5056 3.2033 15.5265 3.09095 15.4373 3.04394L15.3818 3.09031L15.3502 3.02863L15.3507 2.85022Z" fill="#2859C5" fill-opacity="0.105882"/>
<path id="Vector_71" d="M12.9964 12.6607C12.9832 12.7401 12.9878 12.9108 12.9979 12.9922C12.9433 12.9926 12.8072 12.9971 12.7603 12.9873C12.8239 12.9791 12.9356 12.9962 12.9594 12.9361C12.903 12.8971 12.8291 12.9317 12.7777 12.8921C12.7883 12.8243 12.8199 12.7597 12.847 12.6962C12.885 12.6977 12.9015 12.6924 12.9383 12.6844L12.9964 12.6607Z" fill="#8EBEF9" fill-opacity="0.360784"/>
<path id="Vector_72" d="M12.6792 12.6794C12.708 12.6687 12.8989 12.6785 12.9383 12.6844C12.9015 12.6924 12.885 12.6977 12.847 12.6962C12.8199 12.7597 12.7883 12.8243 12.7777 12.8921C12.8291 12.9317 12.903 12.8971 12.9594 12.9361C12.9356 12.9962 12.8239 12.9791 12.7603 12.9873C12.7102 12.9842 12.7099 12.9764 12.6694 12.998C12.7007 12.9329 12.6836 12.7562 12.6792 12.6794Z" fill="#8EBEF9" fill-opacity="0.454902"/>
<path id="Vector_73" d="M13.9871 2.01114L14.0069 2.02339C14.0082 2.09458 14.0023 2.25539 14.0112 2.31189C14.0392 2.32828 14.0426 2.32692 14.076 2.32845C14.2075 2.32887 14.4689 2.33758 14.5904 2.32873C14.648 2.32913 14.9681 2.32591 15.0031 2.33231C14.8625 2.3627 13.9339 2.34336 13.762 2.33036L13.7692 2.29855C13.8161 2.26681 13.8256 2.28498 13.8987 2.27552C13.9304 2.24472 13.969 2.07231 13.9871 2.01114Z" fill="#2859C5" fill-opacity="0.533333"/>
<path id="Vector_74" d="M13.3716 0.655364L13.3829 0.657205C13.4725 0.670991 13.5716 0.643173 13.6294 0.677813C13.6668 0.734827 13.6565 0.742863 13.654 0.819159C13.5275 0.736644 13.4874 0.828016 13.4073 0.893514L13.3735 0.869856C13.372 0.798369 13.3714 0.726867 13.3716 0.655364Z" fill="#2859C5" fill-opacity="0.423529"/>
<path id="Vector_75" d="M13.3735 0.869856L13.4073 0.893514C13.4874 0.828016 13.5275 0.736644 13.654 0.819159C13.6545 0.861239 13.6531 0.960436 13.6588 0.997669C13.5954 0.953155 13.5082 1.00119 13.4072 0.964202C13.3683 0.92705 13.38 0.936573 13.3735 0.869856Z" fill="#2859C5" fill-opacity="0.462745"/>
<path id="Vector_76" d="M7.01377 9.98419C7.01352 9.87989 7.01173 9.77631 7.01908 9.67227L7.03961 9.66422C7.10894 9.67481 7.16158 9.6802 7.23158 9.68486L7.06122 9.69892C7.07173 9.88764 7.07189 9.99689 7.30691 10.0066C7.31864 10.0071 7.33675 10.0014 7.34792 9.9975C7.21381 10.1299 7.15075 10.03 7.01377 9.98419Z" fill="#8EBEF9" fill-opacity="0.686275"/>
<path id="Vector_77" d="M5.10512 5.00417L5.15178 5.00661L5.17205 5.03152C5.20945 5.02858 5.23016 5.02377 5.2658 5.03666L5.27008 5.05466C5.19439 5.06352 5.18906 5.00722 5.11298 5.07467L5.10992 5.08734C5.17286 5.1017 5.1513 5.08903 5.1942 5.13241C5.20516 5.21369 5.17531 5.24177 5.20981 5.29939C5.25438 5.33169 5.27642 5.33373 5.3297 5.34637C5.289 5.3463 5.06487 5.33177 5.04119 5.31609C5.09037 5.28261 5.0715 5.12427 5.10512 5.00417Z" fill="#8EBEF9" fill-opacity="0.054902"/>
<path id="Vector_78" d="M13.0104 12.646L13.0284 12.5852C13.0447 12.529 13.0669 12.5 13.0982 12.4501C13.0749 12.4279 13.0568 12.4096 13.0352 12.3858C13.0739 12.3804 13.1094 12.3809 13.1483 12.3804C13.1511 12.477 13.1576 12.4846 13.1197 12.5736C13.1794 12.6015 13.2049 12.5621 13.2539 12.5916L13.2475 12.6237C13.1907 12.6502 13.0776 12.6449 13.0104 12.646Z" fill="#8EBEF9" fill-opacity="0.0509804"/>
<path id="Vector_79" d="M15.3502 3.02863L15.3818 3.09031L15.4373 3.04394C15.5265 3.09095 15.5056 3.2033 15.4443 3.26109C15.4131 3.25417 15.409 3.24855 15.3828 3.22883L15.3787 3.24922C15.3716 3.29694 15.3609 3.38795 15.3485 3.43105C15.3509 3.29692 15.3515 3.16277 15.3502 3.02863Z" fill="#2859C5" fill-opacity="0.14902"/>
<path id="Vector_80" d="M0.642158 3.90081C0.635131 3.89595 0.623225 3.89342 0.614183 3.89061L0.610472 3.94478C0.570406 3.95284 0.565358 3.94877 0.524742 3.93648C0.463453 3.87398 0.458267 3.82053 0.525844 3.75591C0.621327 3.72733 0.535219 3.77123 0.642906 3.78166L0.642158 3.90081Z" fill="#8EBEF9" fill-opacity="0.168627"/>
<path id="Vector_81" d="M8.72116 8.51902C8.79178 8.52742 8.80063 8.5293 8.85281 8.577L8.88392 8.57216L8.88248 8.55875C8.87766 8.51095 8.87609 8.49911 8.89888 8.45467L8.93811 8.42295L8.96252 8.42958C8.98817 8.51486 8.95284 8.58278 8.96798 8.64464C8.84514 8.6263 8.80337 8.61027 8.72116 8.51902Z" fill="#8EBEF9" fill-opacity="0.145098"/>
<path id="Vector_82" d="M0.649447 4.37138C0.692866 4.38989 0.744706 4.40433 0.768244 4.44127C0.681048 4.50556 0.783252 4.54598 0.788908 4.61233L0.750862 4.62977C0.687655 4.62391 0.707748 4.63359 0.663923 4.60009C0.653413 4.52605 0.652306 4.44647 0.649447 4.37138Z" fill="#8EBEF9" fill-opacity="0.223529"/>
<path id="Vector_83" d="M7.49998 9.99478C7.46241 9.98403 7.44361 9.96266 7.44461 9.9255C7.504 9.88362 7.57525 9.90652 7.62122 9.87644C7.60645 9.7678 7.51866 9.78277 7.63481 9.6922C7.64208 9.80975 7.65217 9.87284 7.60859 9.98436L7.49998 9.99478Z" fill="#8EBEF9" fill-opacity="0.905882"/>
<path id="Vector_84" d="M9.79181 9.33109C9.8527 9.32388 9.88619 9.33144 9.92459 9.297C9.91267 9.24317 9.80306 9.19423 9.92742 9.09848L9.95133 9.1052C9.96567 9.15786 10.003 9.29152 10.005 9.3392C9.91628 9.34258 9.88025 9.34275 9.79181 9.33109Z" fill="#8EBEF9" fill-opacity="0.101961"/>
<path id="Vector_85" d="M10.6724 7.16867C10.7706 7.22123 10.8027 7.25688 10.8804 7.33392C10.8112 7.32644 10.7357 7.34494 10.6873 7.32336C10.6581 7.26638 10.6699 7.23822 10.6724 7.16867Z" fill="#8EBEF9" fill-opacity="0.941176"/>
<path id="Vector_86" d="M5.03219 5.00542L5.10513 5.00417C5.0715 5.12427 5.09037 5.28261 5.04119 5.31609C5.01591 5.21944 5.02786 5.10736 5.03219 5.00542Z" fill="#8EBEF9" fill-opacity="0.129412"/>
<path id="Vector_87" d="M7.00919 14.8154L7.0427 14.7863C7.10188 14.8121 7.08228 14.912 7.07802 14.9704C7.01658 14.9797 7.03214 14.9684 7.00159 15.0045C7.01156 14.9514 7.00905 14.8717 7.00919 14.8154Z" fill="#8EBEF9" fill-opacity="0.294118"/>
</g>
<defs>
<clipPath id="clip0_0_20">
<rect width="16" height="16" fill="white"/>
</clipPath>
</defs>
</svg>
