<svg preserveAspectRatio="none" overflow="visible" style="display: block;" width="26" height="26" viewBox="0 0 26 26" fill="none" xmlns="http://www.w3.org/2000/svg">
<g id="sFuse">
<g clip-path="url(#clip0_0_115)">
<path id="Vector" fill-rule="evenodd" clip-rule="evenodd" d="M13.0002 2C6.92508 2 2 6.92495 2 13.0001C2 19.0754 6.92508 24 13.0002 24C19.076 24 24.0005 19.0754 24.0005 13.0001C24.0005 6.92535 19.076 2.00053 13.0001 2.00053L13.0002 2ZM6.72726 10.4791C10.1122 9.45173 15.9615 9.64535 19.5068 11.7511H19.5073C19.9947 12.0414 20.6278 11.8803 20.9168 11.3913C20.9859 11.2752 21.0314 11.1465 21.0507 11.0128C21.07 10.879 21.0628 10.7427 21.0293 10.6117C20.9959 10.4808 20.937 10.3577 20.8559 10.2495C20.7748 10.1414 20.6732 10.0503 20.5569 9.98149C16.4751 7.55836 10.0156 7.33045 6.12998 8.51003C5.86887 8.58933 5.64993 8.76909 5.52132 9.00978C5.39272 9.25046 5.36496 9.53237 5.44417 9.79352C5.60889 10.3371 6.18371 10.6439 6.72726 10.4791ZM19.3912 14.8701C19.143 15.2736 18.6149 15.401 18.2116 15.1527C15.2548 13.3353 10.7476 12.8089 7.25019 13.8706C6.79662 14.0076 6.31756 13.7519 6.1799 13.2992C6.11421 13.0815 6.13753 12.8466 6.24475 12.6461C6.35196 12.4456 6.53432 12.2958 6.75183 12.2295C10.7468 11.0174 15.7132 11.6045 19.1088 13.6911C19.5121 13.9394 19.6395 14.4673 19.3912 14.8701ZM17.8634 18.0621C17.9362 18.0091 17.9979 17.9422 18.0448 17.8653C18.2432 17.5421 18.1407 17.1205 17.8176 16.9221C14.918 15.1501 11.3237 14.7379 7.13342 15.6952C7.0456 15.7152 6.96258 15.7523 6.88911 15.8043C6.81564 15.8564 6.75316 15.9225 6.70526 15.9987C6.65735 16.075 6.62496 16.16 6.60994 16.2488C6.59492 16.3376 6.59756 16.4284 6.61771 16.5162C6.65817 16.6935 6.76736 16.8474 6.92128 16.9442C7.0752 17.041 7.26126 17.0728 7.43856 17.0325C11.2676 16.1576 14.5189 16.5149 17.1017 18.0925C17.1785 18.1396 17.2639 18.1711 17.3529 18.1852C17.4419 18.1992 17.5328 18.1956 17.6204 18.1745C17.708 18.1534 17.7906 18.1152 17.8634 18.0621Z" fill="#1ED760"/>
</g>
<rect x="1" y="1" width="24" height="24" rx="12" stroke="#1C1C1C" stroke-width="2"/>
</g>
<defs>
<clipPath id="clip0_0_115">
<rect x="2" y="2" width="22" height="22" rx="11" fill="white"/>
</clipPath>
</defs>
</svg>
