<svg preserveAspectRatio="none" overflow="visible" style="display: block;" width="26" height="26" viewBox="0 0 26 26" fill="none" xmlns="http://www.w3.org/2000/svg">
<g id="sFuse">
<rect x="1" y="1" width="24" height="24" rx="12" fill="#13AD87"/>
<rect x="1" y="1" width="24" height="24" rx="12" stroke="#1C1C1C" stroke-width="2"/>
<path id="Vector" d="M19.2928 11.6673C19.4576 11.1727 19.5147 10.6486 19.4605 10.1301C19.4062 9.61158 19.2418 9.11064 18.9783 8.66082C18.1766 7.26501 16.565 6.5469 14.9911 6.88483C14.645 6.49494 14.2197 6.18343 13.7436 5.97114C13.2675 5.75886 12.7515 5.65068 12.2302 5.65386C10.6214 5.65019 9.19387 6.68602 8.69891 8.21682C8.18802 8.32142 7.70535 8.53393 7.28322 8.84013C6.86109 9.14634 6.50923 9.53917 6.25119 9.99235C5.44355 11.3845 5.62767 13.1393 6.70667 14.3331C6.54194 14.8278 6.48479 15.3519 6.53903 15.8704C6.59327 16.3889 6.75766 16.8898 7.02118 17.3396C7.82286 18.7354 9.43447 19.4535 11.0084 19.1156C11.3544 19.5056 11.7797 19.8171 12.2558 20.0293C12.732 20.2415 13.248 20.3495 13.7693 20.3461C15.3791 20.3503 16.807 19.3135 17.302 17.7813C17.8129 17.6767 18.2955 17.4642 18.7177 17.158C19.1398 16.8518 19.4916 16.459 19.7497 16.0058C20.5564 14.6137 20.3718 12.8602 19.2933 11.6664L19.2928 11.6673ZM13.7702 19.3861C13.1261 19.3871 12.5021 19.1615 12.0075 18.7488C12.03 18.7368 12.0691 18.7152 12.0943 18.6996L15.02 17.01C15.0935 16.9682 15.1545 16.9076 15.1968 16.8344C15.2391 16.7612 15.2611 16.678 15.2606 16.5935V12.469L16.4971 13.183C16.5104 13.1894 16.5191 13.2022 16.521 13.2169V16.6325C16.5191 18.1514 15.2891 19.3828 13.7702 19.3861ZM7.85454 16.8594C7.53182 16.3021 7.4156 15.6489 7.52625 15.0145C7.54783 15.0274 7.58594 15.0508 7.61303 15.0664L10.5387 16.7561C10.687 16.8428 10.8707 16.8428 11.0194 16.7561L14.5912 14.6936V16.1215C14.5921 16.1362 14.5852 16.1504 14.5737 16.1596L11.6163 17.8672C10.299 18.6257 8.61672 18.1748 7.855 16.8594H7.85454ZM7.08455 10.4731C7.40595 9.91475 7.91331 9.48774 8.51755 9.26597C8.51755 9.29123 8.51617 9.33577 8.51617 9.36699V12.7468C8.51525 12.9185 8.60708 13.0778 8.7563 13.1628L12.328 15.2248L11.0915 15.9388C11.0791 15.947 11.0635 15.9484 11.0497 15.9424L8.09192 14.2335C6.77738 13.4722 6.32649 11.7904 7.08409 10.4735L7.08455 10.4731ZM17.2437 12.8372L13.6719 10.7747L14.9084 10.0612C14.9208 10.053 14.9364 10.0516 14.9502 10.0575L17.908 11.7651C19.2249 12.5259 19.6762 14.2105 18.9154 15.5274C18.5937 16.0847 18.0868 16.5117 17.4829 16.734V13.2532C17.4842 13.0815 17.3929 12.9226 17.2441 12.8372H17.2437ZM18.4742 10.985C18.4526 10.9717 18.4145 10.9488 18.3874 10.9331L15.4617 9.24348C15.3888 9.20085 15.3058 9.17839 15.2213 9.17839C15.1369 9.17839 15.0539 9.20085 14.981 9.24348L11.4093 11.306V9.87802C11.4083 9.86333 11.4152 9.84909 11.4267 9.83991L14.3841 8.13372C15.7014 7.37383 17.3855 7.82609 18.145 9.14384C18.4659 9.70044 18.5821 10.3518 18.4732 10.985H18.4742ZM10.7371 13.5301L9.50012 12.8161C9.49362 12.8129 9.48802 12.8081 9.48385 12.8022C9.47967 12.7962 9.47706 12.7893 9.47625 12.7821V9.36653C9.47717 7.84583 10.7109 6.61348 12.2316 6.6144C12.8749 6.6144 13.4975 6.8403 13.992 7.25169C13.9695 7.26363 13.9309 7.28521 13.9052 7.30082L10.9795 8.99049C10.906 9.03216 10.845 9.09268 10.8027 9.16581C10.7604 9.23893 10.7384 9.322 10.7389 9.40647L10.7371 13.5292V13.5301ZM11.4088 12.0819L12.9997 11.1632L14.5907 12.0815V13.9185L12.9997 14.8368L11.4088 13.9185V12.0819Z" fill="white"/>
</g>
</svg>
