<svg preserveAspectRatio="none" overflow="visible" style="display: block;" width="33" height="32.3774" viewBox="0 0 33 32.3774" fill="none" xmlns="http://www.w3.org/2000/svg">
<g id="Frame 1707479125">
<rect width="33" height="32.3774" rx="16.1887" fill="white" fill-opacity="0.1"/>
<path id="Star 6" d="M15.0664 8.37891C15.5003 6.96614 17.4997 6.96614 17.9336 8.37891L18.8799 11.4629C19.1231 12.2558 19.7442 12.8769 20.5371 13.1201L23.6211 14.0664C25.0339 14.5003 25.0339 16.4997 23.6211 16.9336L20.5371 17.8799C19.7442 18.1231 19.1231 18.7442 18.8799 19.5371L17.9336 22.6211C17.4997 24.0339 15.5003 24.0339 15.0664 22.6211L14.1201 19.5371C13.8769 18.7442 13.2558 18.1231 12.4629 17.8799L9.37891 16.9336C7.96614 16.4997 7.96614 14.5003 9.37891 14.0664L12.4629 13.1201C13.2558 12.8769 13.8769 12.2558 14.1201 11.4629L15.0664 8.37891Z" stroke="white"/>
</g>
</svg>
