<svg preserveAspectRatio="none" overflow="visible" style="display: block;" width="40.7692" height="40" viewBox="0 0 40.7692 40" fill="none" xmlns="http://www.w3.org/2000/svg">
<g id="Icon / fuse">
<rect width="40.7692" height="40" rx="20" fill="white" fill-opacity="0.1"/>
<path id="Vector" d="M17.0314 10.5518L20.5241 8.47924C20.6235 8.42027 20.7469 8.42027 20.8464 8.47924L30.0514 13.9402C30.1509 13.9991 30.2121 14.1082 30.2131 14.2261L30.2255 17.9821C30.2255 18.1009 30.1643 18.2111 30.0638 18.27L26.576 20.3395C26.3617 20.4674 26.093 20.3081 26.092 20.0536L26.0805 16.6829C26.0805 16.565 26.0184 16.4559 25.919 16.3969L17.0314 11.1257C16.8162 10.9979 16.8162 10.6795 17.0314 10.5518Z" fill="white"/>
<path id="Vector_2" d="M14.4172 28.0689L10.7151 25.9149C10.6087 25.8536 10.5438 25.7401 10.5438 25.6164V14.2597C10.5438 14.1371 10.6087 14.0237 10.7141 13.9614L14.0643 11.9964C14.1708 11.934 14.3016 11.934 14.407 11.9964L18.105 14.1484C18.3321 14.2812 18.3332 14.6112 18.106 14.7451L15.1006 16.5078C14.9951 16.5691 14.9302 16.6825 14.9302 16.8062V27.7715C14.9302 28.0372 14.6453 28.2017 14.4172 28.0689Z" fill="white"/>
<path id="Vector_3" d="M30.2255 20.7037V24.6744C30.2255 24.7884 30.1627 24.8929 30.0597 24.9494L20.6196 30.1831C20.5176 30.2396 20.3921 30.2396 20.2901 30.1831L17.0368 28.3936C16.9338 28.3371 16.87 28.2316 16.87 28.1176V24.1517C16.87 23.9078 17.1447 23.7552 17.3653 23.8757L20.2842 25.4815C20.3862 25.5381 20.5117 25.5371 20.6137 25.4815L29.7282 20.4278C29.9488 20.3053 30.2244 20.4579 30.2244 20.7028L30.2255 20.7037Z" fill="white"/>
</g>
</svg>
